PathFileType	4	(x/y/z)	S09_M20_T02
DataRate	CameraRate	NumFrames	NumMarkers	Units	OrigDataRate	OrigDataStartFrame	OrigNumFrames
240	240	4	51	mm	240	414	551
Frame#	Time	Sternum			R.Acromium			L.Acromium			Top.Head			R.ASIS			L.ASIS			R.PSIS			L.PSIS			R.Great.Tro			L.Great.Tro			R.Iliac.Crest			L.Iliac.Crest			V.Sacral			R.Thigh.Upper.Post			R.Thigh.Lower.Ant			R.Thigh.Lower.Post			R.Thigh.Upper.Ant			R.Knee.Lat			R.Knee.Med			R.Shank.Upper.Post			R.Shank.Lower.Ant			R.Shank.Lower.Post			R.Shank.Upper.Ant			R.Ankle.Lat			R.Ankle.Med			R.Heel.Upper			R.Heel.Med			R.Heel.Lat			R.Toe.Lat			R.Toe.Med			R.Toe.Tip			L.Thigh.Upper.Post			L.Thigh.Lower.Ant			L.Thigh.Lower.Post			L.Thigh.Upper.Ant			L.Knee.Lat			L.Knee.Med			L.Shank.Upper.Post			L.Shank.Lower.Ant			L.Shank.Lower.Post			L.Shank.Upper.Ant			L.Ankle.Lat			L.Ankle.Med			L.Heel.Upper			L.Heel.Med			L.Heel.Lat			L.Toe.Lat			L.Toe.Med			L.Toe.Tip			Cervical.Spine			Back			
		X1	Y1	Z1	X2	Y2	Z2	X3	Y3	Z3	X4	Y4	Z4	X5	Y5	Z5	X6	Y6	Z6	X7	Y7	Z7	X8	Y8	Z8	X9	Y9	Z9	X10	Y10	Z10	X11	Y11	Z11	X12	Y12	Z12	X13	Y13	Z13	X14	Y14	Z14	X15	Y15	Z15	X16	Y16	Z16	X17	Y17	Z17	X18	Y18	Z18	X19	Y19	Z19	X20	Y20	Z20	X21	Y21	Z21	X22	Y22	Z22	X23	Y23	Z23	X24	Y24	Z24	X25	Y25	Z25	X26	Y26	Z26	X27	Y27	Z27	X28	Y28	Z28	X29	Y29	Z29	X30	Y30	Z30	X31	Y31	Z31	X32	Y32	Z32	X33	Y33	Z33	X34	Y34	Z34	X35	Y35	Z35	X36	Y36	Z36	X37	Y37	Z37	X38	Y38	Z38	X39	Y39	Z39	X40	Y40	Z40	X41	Y41	Z41	X42	Y42	Z42	X43	Y43	Z43	X44	Y44	Z44	X45	Y45	Z45	X46	Y46	Z46	X47	Y47	Z47	X48	Y48	Z48	X49	Y49	Z49	X50	Y50	Z50	X51	Y51	Z51	

414	1.7208	1330.1	1169.6	311.24	1187.6	1415.2	452.77	1187	1412.3	145.36	1240.1	1710.5	287.7	1271.8	989.73	418.98	1298.5	1007.3	173.28	1062.5	1020.9	315.25	1079.4	1028.7	227.18	1173.6	899.94	475.57	1242.5	919.39	94.123	1178.2	1067	456.85	1193.4	1101.5	127.67	1052	990.57	261.74	1165.3	655.98	475.4	1238	548.95	469.5	1160.4	562.14	459.71	1235.5	639.56	481.82	1200	472.01	465.56	1219.2	450.6	344.2	1024.7	417.73	450.09	1014.8	327.26	439.7	962.71	376.24	430.52	1070.9	371.91	458.6	824.63	255.7	397.39	867.6	227.23	321.83	791.75	293.72	328.94	778.25	266.2	296.73	756.97	278.67	356.89	805.6	139.6	438.9	864.45	96.117	353.85	886.24	66.217	409.25	1243.9	648.71	151.01	1348.2	579.11	167.33	1280.9	569.68	180.21	1314.7	655.45	134.66	1351.2	501.35	184.41	1359.7	527.69	315.76	1309.7	369.61	178.24	1372.9	281.07	201.07	1309.7	293.06	189.13	1371.8	358.67	190.58	1324.9	99.74	224.25	1339.4	98.477	317.6	1257.9	69.008	279.33	1271.2	46.496	312.24	1257.1	39.201	253.06	1425.9	44.195	193.6	1466.8	52.348	301.12	1512	75.691	240.16	1109.5	1458.4	306.14	1069	1189.9	288.37
415	1.725	1335	1171	311.07	1192.8	1416.6	452.49	1192.3	1413.9	145.1	1245.6	1711.9	287.65	1276.9	991.36	418.44	1303.3	1008.6	172.71	1067.5	1022.3	315.13	1084.3	1030.1	227.05	1179.2	901.46	475.39	1247	920.43	93.844	1183.4	1068.5	456.52	1198.3	1102.8	127.22	1056.9	991.99	261.66	1174.1	657.23	475.7	1248.1	551.12	469.59	1170.3	563.34	460.09	1244.5	641.69	481.86	1211	473.72	465.82	1230.2	452.43	344.32	1036.2	418.28	450.2	1026.9	327.7	440.3	974.48	376.25	430.84	1082.7	372.85	458.99	837.33	254.32	398.2	880.59	226.28	322.65	803.44	291.49	329.69	790.31	263.55	297.67	769.05	275.95	357.87	820.63	138.27	440.4	879.95	95.407	355.33	902.53	66.302	410.8	1246.7	649.77	150.73	1350.5	579.4	167.24	1283	570.44	179.94	1317.6	656	134.5	1352.7	501.48	184.29	1361	527.72	315.62	1310.5	369.75	178.2	1373.6	281.04	200.95	1310.4	293.21	189.11	1372.6	358.64	190.44	1325.1	99.801	224.26	1339.6	98.524	317.59	1257.9	69.14	279.41	1271.3	46.576	312.26	1257.2	39.348	253.07	1426	44.098	193.58	1466.9	51.939	301.17	1512.2	75.148	240.24	1114.8	1459.9	305.8	1074.1	1191.6	287.78
416	1.7292	1339.9	1172.5	310.88	1197.9	1417.9	452.2	1197.7	1415.5	144.83	1251	1713.3	287.61	1282.1	992.97	417.88	1308.1	1009.9	172.12	1072.4	1023.7	315.05	1089.2	1031.4	226.96	1184.8	902.96	475.24	1251.6	921.46	93.568	1188.5	1070	456.2	1203.2	1104	126.78	1061.7	993.36	261.62	1182.9	658.5	475.98	1258.1	553.32	469.63	1180.2	564.56	460.45	1253.5	643.84	481.88	1222	475.48	466.02	1241.1	454.32	344.4	1047.6	418.82	450.25	1039.1	328.13	440.92	986.26	376.2	431.13	1094.5	373.8	459.37	850.15	252.77	399.05	893.69	225.17	323.51	815.25	289.06	330.51	802.49	260.71	298.69	781.26	273.03	358.93	835.8	136.81	441.94	895.56	94.581	356.84	918.92	66.286	412.35	1249.4	650.83	150.44	1352.8	579.7	167.16	1285.2	571.21	179.66	1320.4	656.54	134.36	1354.3	501.61	184.18	1362.4	527.75	315.49	1311.4	369.89	178.16	1374.2	281.01	200.83	1311	293.36	189.08	1373.5	358.61	190.3	1325.3	99.864	224.28	1339.8	98.574	317.57	1258	69.273	279.49	1271.3	46.657	312.29	1257.2	39.494	253.08	1426.1	44.004	193.57	1467	51.542	301.21	1512.5	74.616	240.32	1120.1	1461.4	305.45	1079.1	1193.2	287.22
417	1.7333	1344.8	1173.8	310.68	1203.1	1419.3	451.91	1203.1	1417	144.57	1256.5	1714.7	287.56	1287.2	994.55	417.29	1312.8	1011.2	171.52	1077.4	1025.1	315.02	1094	1032.7	226.9	1190.4	904.46	475.11	1256.2	922.48	93.294	1193.7	1071.5	455.9	1207.9	1105.2	126.36	1066.6	994.67	261.63	1191.6	659.78	476.25	1268.2	555.55	469.63	1190.1	565.82	460.78	1262.5	646	481.87	1232.9	477.28	466.16	1252	456.25	344.44	1059	419.33	450.25	1051.2	328.53	441.53	998.06	376.09	431.4	1106.3	374.77	459.73	863.07	251.04	399.95	906.88	223.9	324.42	827.16	286.43	331.38	814.79	257.67	299.77	793.61	269.91	360.06	851.11	135.23	443.53	911.29	93.645	358.37	935.44	66.178	413.92	1252.2	651.88	150.14	1355	579.98	167.09	1287.3	571.97	179.37	1323.3	657.07	134.21	1355.8	501.74	184.06	1363.7	527.77	315.36	1312.3	370.03	178.11	1374.9	280.98	200.71	1311.7	293.5	189.05	1374.3	358.59	190.17	1325.5	99.929	224.29	1340	98.625	317.56	1258.1	69.408	279.58	1271.3	46.74	312.31	1257.3	39.639	253.09	1426.3	43.912	193.56	1467.2	51.155	301.25	1512.7	74.094	240.38	1125.4	1462.9	305.09	1084.1	1194.7	286.68
